<?xml version="1.0" encoding="utf-8"?>
<!-- Generator: Adobe Illustrator 26.0.0, SVG Export Plug-In . SVG Version: 6.00 Build 0)  -->
<svg version="1.1" id="Layer_1" xmlns="http://www.w3.org/2000/svg" xmlns:xlink="http://www.w3.org/1999/xlink" x="0px" y="0px"
	 viewBox="0 0 50 60" style="enable-background:new 0 0 50 60;" xml:space="preserve">
<style type="text/css">
	.st0{display:none;}
	.st1{display:inline;fill-rule:evenodd;clip-rule:evenodd;fill:#010101;}
	.st2{fill-rule:evenodd;clip-rule:evenodd;fill:url(#SVGID_1_);}
	.st3{fill-rule:evenodd;clip-rule:evenodd;fill:#FFFFFF;}
	.st4{fill-rule:evenodd;clip-rule:evenodd;}
	.st5{fill-rule:evenodd;clip-rule:evenodd;fill:#7F7F7F;}
</style>
<g class="st0">
	<path class="st1" d="M23,60h-2.71c-1.96,0.03-1.83-1.56-1.01-2.66l2.68-3.61C9.58,52.22,0,37.65,0,24.92C0,11.15,11.19,0,24.97,0
		h0.07l0,0C38.84,0,50,11.15,50,24.92c0,12.71-9.52,27.26-21.84,28.81l2.4,3.48C32.07,59.4,31.22,60,28.63,60h-1.57H23z"/>
</g>
<g>
	<linearGradient id="SVGID_1_" gradientUnits="userSpaceOnUse" x1="-1.0007" y1="20.6116" x2="46.3469" y2="37.9481">
		<stop  offset="0" style="stop-color:#CCCCCC"/>
		<stop  offset="1" style="stop-color:#333333"/>
	</linearGradient>
	<path class="st2" d="M23,60h-2.71c-1.96,0.03-1.83-1.56-1.01-2.66l2.68-3.61C9.58,52.22,0,37.65,0,24.92C0,11.15,11.19,0,24.97,0
		h0.07l0,0C38.84,0,50,11.15,50,24.92c0,12.71-9.52,27.26-21.84,28.81l2.4,3.48C32.07,59.4,31.22,60,28.63,60h-1.57H23z"/>
</g>
<path class="st3" d="M5.51,12.73c-0.21,0.42-0.05,0.93,0.36,1.15c0.41,0.22,0.91,0.05,1.12-0.36c0.64-1.28,1.63-2.58,2.75-3.73
	c1.16-1.19,2.46-2.2,3.68-2.84c0.41-0.22,0.57-0.73,0.36-1.14c-0.21-0.41-0.71-0.58-1.12-0.36c-1.37,0.72-2.81,1.84-4.09,3.15
	C7.33,9.85,6.24,11.29,5.51,12.73z"/>
<path class="st4" d="M28.16,53.73l2.4,3.48C32.07,59.4,31.22,60,28.63,60h-1.57H23h-2.71c-1.96,0.03-1.83-1.56-1.01-2.66l2.68-3.61
	c1.06,0.17,2.22,0.27,3.04,0.27C25.86,53.99,27.17,53.9,28.16,53.73z"/>
<path class="st5" d="M32.66,58.83"/>
</svg>
