<?xml version="1.0" encoding="utf-8"?>
<!-- Generator: Adobe Illustrator 26.0.0, SVG Export Plug-In . SVG Version: 6.00 Build 0)  -->
<svg version="1.1" id="Layer_1" xmlns="http://www.w3.org/2000/svg" xmlns:xlink="http://www.w3.org/1999/xlink" x="0px" y="0px"
	 viewBox="0 0 100 100" style="enable-background:new 0 0 100 100;" xml:space="preserve">
<style type="text/css">
	.st0{fill:#E6E7E8;}
	.st1{fill:#7DA88D;}
	.st2{fill:#97D2AF;}
	.st3{fill:#86B69A;}
	.st4{fill:#C49090;}
	.st5{fill:#D39999;}
	.st6{fill:#B78686;}
	.st7{fill:#8CC6C6;}
	.st8{fill:#95D5D6;}
	.st9{fill:#84BBBB;}
	.st10{fill:#939598;}
	.st11{fill:#C2B59B;}
	.st12{fill:#C893C2;}
</style>
<path class="st0" d="M90,100H10c-5.52,0-10-4.48-10-10V10C0,4.48,4.48,0,10,0h80c5.52,0,10,4.48,10,10v80
	C100,95.52,95.52,100,90,100z"/>
<polygon class="st1" points="60.46,44.67 62.5,40 37.5,40 39.53,44.67 "/>
<rect x="39.53" y="44.67" class="st2" width="20.93" height="15.33"/>
<polygon class="st3" points="39.53,60 37.5,57.52 37.5,40 39.53,44.67 "/>
<polygon class="st3" points="60.46,60 62.5,57.52 62.5,40 60.46,44.67 "/>
<polygon class="st4" points="30.46,44.67 32.5,40 7.5,40 9.53,44.67 "/>
<rect x="9.53" y="44.67" class="st5" width="20.93" height="15.33"/>
<polygon class="st6" points="9.53,60 7.5,57.52 7.5,40 9.53,44.67 "/>
<polygon class="st6" points="30.46,60 32.5,57.52 32.5,40 30.46,44.67 "/>
<polygon class="st7" points="90.46,44.67 92.5,40 67.5,40 69.53,44.67 "/>
<rect x="69.53" y="44.67" class="st8" width="20.93" height="15.33"/>
<polygon class="st9" points="69.53,60 67.5,57.52 67.5,40 69.53,44.67 "/>
<polygon class="st9" points="90.46,60 92.5,57.52 92.5,40 90.46,44.67 "/>
<circle class="st10" cx="12.27" cy="47.85" r="1.5"/>
<circle class="st10" cx="15.78" cy="51.09" r="1.5"/>
<circle class="st10" cx="21.76" cy="57.07" r="1.5"/>
<circle class="st10" cx="22.79" cy="48.5" r="1.5"/>
<circle class="st10" cx="25.79" cy="53.83" r="1.5"/>
<circle class="st10" cx="43.3" cy="47.6" r="1.5"/>
<circle class="st10" cx="41.8" cy="53.83" r="1.5"/>
<circle class="st10" cx="52.41" cy="55.07" r="1.5"/>
<circle class="st10" cx="75.28" cy="47.27" r="1.5"/>
<circle class="st10" cx="85.93" cy="50.27" r="1.5"/>
<circle class="st10" cx="74.39" cy="52.59" r="1.5"/>
<circle class="st10" cx="80.36" cy="52.07" r="1.5"/>
<circle class="st11" cx="82.3" cy="47.85" r="2.5"/>
<circle class="st11" cx="77.5" cy="54.57" r="2.5"/>
<circle class="st11" cx="52.97" cy="47.6" r="2.5"/>
<circle class="st11" cx="47.3" cy="52.33" r="2.5"/>
<circle class="st11" cx="55.47" cy="53.57" r="2.5"/>
<circle class="st11" cx="45.98" cy="45.77" r="2.5"/>
<circle class="st11" cx="18.28" cy="44.2" r="2.5"/>
<circle class="st12" cx="56.98" cy="48.27" r="2"/>
<circle class="st12" cx="59.48" cy="56.57" r="2"/>
<circle class="st12" cx="43.98" cy="56.27" r="2"/>
<circle class="st12" cx="70.89" cy="45.6" r="2"/>
<circle class="st12" cx="75" cy="56.77" r="2"/>
<circle class="st12" cx="89.03" cy="45.1" r="2"/>
<circle class="st12" cx="78.86" cy="49.27" r="2"/>
<circle class="st12" cx="19.76" cy="49.83" r="2"/>
<circle class="st12" cx="25.09" cy="51.83" r="2"/>
<circle class="st12" cx="15.78" cy="54.09" r="2"/>
<circle class="st12" cx="28.89" cy="44.67" r="2"/>
<circle class="st11" cx="28.39" cy="50.57" r="2.5"/>
<circle class="st11" cx="20" cy="54.27" r="2.5"/>
<circle class="st11" cx="58.98" cy="45.35" r="2.5"/>
<circle class="st11" cx="12.27" cy="56.07" r="2.5"/>
<circle class="st10" cx="85.17" cy="55.07" r="1.5"/>
<polygon class="st1" points="37.5,57.52 62.5,57.52 60.46,60 39.53,60 "/>
<polygon class="st4" points="7.5,57.52 32.5,57.52 30.46,60 9.53,60 "/>
<polygon class="st7" points="67.5,57.52 92.5,57.52 90.46,60 69.53,60 "/>
</svg>
