<?xml version="1.0" encoding="utf-8"?>
<!-- Generator: Adobe Illustrator 26.0.0, SVG Export Plug-In . SVG Version: 6.00 Build 0)  -->
<svg version="1.1" id="Layer_1" xmlns="http://www.w3.org/2000/svg" xmlns:xlink="http://www.w3.org/1999/xlink" x="0px" y="0px"
	 viewBox="0 0 100 100" style="enable-background:new 0 0 100 100;" xml:space="preserve">
<style type="text/css">
	.st0{fill:#E6E7E8;}
	.st1{fill:#9DC9EB;}
	.st2{fill:#AF72B0;}
	.st3{fill:#58BA51;}
	.st4{fill:#FFFFFF;}
	.st5{fill-rule:evenodd;clip-rule:evenodd;fill:#CCC082;}
	.st6{fill-rule:evenodd;clip-rule:evenodd;fill:#FFFFFF;}
	.st7{fill-rule:evenodd;clip-rule:evenodd;fill:#D6D6D6;}
	.st8{fill-rule:evenodd;clip-rule:evenodd;fill:#E06077;}
</style>
<path class="st0" d="M90,100H10c-5.52,0-10-4.48-10-10V10C0,4.48,4.48,0,10,0h80c5.52,0,10,4.48,10,10v80
	C100,95.52,95.52,100,90,100z"/>
<path class="st1" d="M82.5,92.5h-65c-5.52,0-10-4.48-10-10v-65c0-5.52,4.48-10,10-10h65c5.52,0,10,4.48,10,10v65
	C92.5,88.02,88.02,92.5,82.5,92.5z"/>
<g>
	<g>
		<g>
			<path class="st2" d="M12.99,21.62c0.3-0.59,0.67-1.18,1.27-1.51c0.78-0.44,1.62-0.5,2.48-0.58c-1.22-0.97-2.33-2.38-2.77-3.91
				c-0.68,1.79-1.04,3.85-0.99,6.03C12.99,21.63,12.99,21.62,12.99,21.62z"/>
			<path class="st2" d="M13.08,21.83c-0.05,0.02-0.1,0.03-0.14,0.02c-0.1-0.02-0.18-0.1-0.18-0.21c-0.05-2.16,0.3-4.28,1-6.12
				c0.04-0.1,0.13-0.16,0.23-0.15c0.1,0,0.19,0.07,0.21,0.17c0.38,1.33,1.38,2.73,2.66,3.76c0.04,0.02,0.08,0.06,0.11,0.11
				c0.05,0.11,0.01,0.25-0.11,0.31l-0.01,0c-0.02,0.01-0.05,0.02-0.07,0.02l-0.21,0.02c-0.78,0.08-1.51,0.15-2.19,0.54
				c-0.56,0.32-0.91,0.89-1.17,1.42C13.18,21.77,13.13,21.81,13.08,21.83z M13.97,16.3c-0.45,1.39-0.71,2.91-0.76,4.48
				c0.24-0.34,0.54-0.67,0.93-0.88c0.65-0.37,1.35-0.48,2.04-0.56C15.19,18.46,14.42,17.39,13.97,16.3z"/>
		</g>
		<g>
			<path class="st2" d="M20.1,12.73c-0.05-1.7,0.68-3.76,2.42-4.05c-0.33-0.5-0.61-1.22-0.68-1.91c-1.73,0.55-3.2,1.75-4.31,3.39
				C18.53,10.46,19.5,11.76,20.1,12.73z"/>
			<path class="st2" d="M20.2,12.95c-0.01,0.01-0.02,0.01-0.03,0.01c-0.1,0.03-0.21-0.01-0.26-0.1c-0.86-1.38-1.72-2.26-2.44-2.47
				c-0.07-0.02-0.13-0.07-0.15-0.15c-0.03-0.07-0.01-0.15,0.03-0.21c1.16-1.72,2.71-2.94,4.44-3.48c0.07-0.02,0.14-0.01,0.19,0.03
				c0.06,0.04,0.1,0.1,0.1,0.17c0.06,0.6,0.3,1.27,0.61,1.77c0.02,0.02,0.04,0.05,0.05,0.07c0.05,0.11,0,0.25-0.11,0.31
				c-0.03,0.01-0.04,0.02-0.06,0.02c-0.19,0.03-0.37,0.09-0.54,0.17c-1.23,0.57-1.73,2.24-1.68,3.65
				C20.34,12.82,20.28,12.91,20.2,12.95z M17.89,10.06c0.75,0.35,1.46,1.15,2.01,1.94c0.13-1.36,0.74-2.78,1.93-3.33
				c0.11-0.05,0.22-0.1,0.34-0.13c-0.24-0.44-0.42-0.95-0.51-1.45C20.2,7.61,18.91,8.64,17.89,10.06z"/>
		</g>
		<g>
			<path class="st2" d="M18.74,21.47c-0.76,0.53-1.49,1.15-2.1,1.86c0.17,0.86,0.4,1.68,0.68,2.47
				C17.52,24.3,18.08,22.81,18.74,21.47z"/>
			<path class="st2" d="M17.41,26.01c-0.02,0.01-0.05,0.02-0.07,0.02c-0.11,0.01-0.21-0.05-0.24-0.15c-0.28-0.81-0.52-1.65-0.68-2.5
				c-0.01-0.07,0-0.14,0.05-0.2c0.58-0.68,1.3-1.32,2.14-1.9c0.08-0.06,0.2-0.05,0.28,0.02s0.1,0.18,0.06,0.27
				c-0.75,1.53-1.22,2.96-1.4,4.25C17.53,25.91,17.48,25.98,17.41,26.01z M16.89,23.4c0.1,0.49,0.22,0.98,0.36,1.46
				c0.19-0.84,0.49-1.73,0.89-2.65C17.67,22.59,17.25,22.98,16.89,23.4z"/>
		</g>
		<g>
			<path class="st2" d="M24.65,13.51c-0.28-0.21-0.54-0.46-0.77-0.73c-0.33,0.4-0.65,0.81-0.98,1.2c0.29,0.48,0.47,1.01,0.64,1.54
				C23.81,14.83,24.21,14.15,24.65,13.51z"/>
			<path class="st2" d="M23.63,15.75c-0.03,0.02-0.07,0.02-0.11,0.02c-0.1,0-0.18-0.07-0.21-0.17c-0.15-0.5-0.33-1.03-0.62-1.49
				c-0.05-0.09-0.04-0.2,0.03-0.27c0.28-0.32,0.55-0.66,0.82-1l0.15-0.19c0.04-0.06,0.11-0.08,0.17-0.09c0.07,0,0.13,0.03,0.18,0.08
				c0.22,0.25,0.47,0.49,0.73,0.69c0.1,0.07,0.12,0.21,0.05,0.31c-0.51,0.75-0.86,1.38-1.09,1.98
				C23.72,15.68,23.68,15.72,23.63,15.75z M23.17,14.02c0.16,0.28,0.29,0.58,0.39,0.87c0.2-0.42,0.45-0.85,0.77-1.33
				c-0.16-0.13-0.31-0.27-0.45-0.42C23.65,13.44,23.42,13.73,23.17,14.02z"/>
		</g>
		<g>
			<path class="st2" d="M33.84,12.66c-0.55,1.03-1.24,1.99-2.2,2.64c0.64,0.27,1.19,0.87,1.6,1.54c0.59-0.66,1.27-1.23,1.99-1.74
				C34.6,14.43,34.15,13.55,33.84,12.66z"/>
			<path class="st2" d="M33.34,17.06c-0.03,0.02-0.08,0.02-0.12,0.02c-0.07-0.01-0.14-0.05-0.18-0.11c-0.32-0.51-0.83-1.17-1.5-1.45
				c-0.08-0.03-0.13-0.11-0.14-0.19c-0.01-0.09,0.03-0.17,0.1-0.22c0.8-0.55,1.49-1.38,2.12-2.57c0.04-0.08,0.13-0.13,0.22-0.12
				s0.17,0.07,0.2,0.15c0.34,0.96,0.81,1.78,1.35,2.36c0.04,0.05,0.07,0.11,0.06,0.18c0,0.06-0.04,0.12-0.1,0.16
				c-0.8,0.57-1.43,1.13-1.95,1.71C33.39,17.03,33.37,17.04,33.34,17.06z M32.07,15.28c0.5,0.31,0.91,0.78,1.2,1.2
				c0.45-0.48,0.99-0.94,1.62-1.41c-0.43-0.5-0.79-1.13-1.1-1.86C33.28,14.09,32.71,14.77,32.07,15.28z"/>
		</g>
		<g>
			<path class="st2" d="M29.91,24.99c-0.44,0.83-0.99,1.6-1.77,2.13c0.52,0.22,0.96,0.7,1.29,1.24c0.47-0.53,1.02-0.99,1.6-1.41
				C30.53,26.42,30.16,25.7,29.91,24.99z"/>
			<path class="st2" d="M29.53,28.57c-0.03,0.02-0.08,0.02-0.12,0.02c-0.07-0.01-0.14-0.05-0.18-0.11c-0.25-0.4-0.66-0.93-1.19-1.15
				c-0.08-0.03-0.13-0.11-0.14-0.19c-0.01-0.09,0.03-0.17,0.1-0.22c0.65-0.44,1.18-1.09,1.69-2.05c0.04-0.08,0.13-0.13,0.22-0.12
				s0.17,0.07,0.2,0.15c0.27,0.77,0.65,1.42,1.08,1.88c0.04,0.05,0.07,0.11,0.06,0.18c0,0.06-0.04,0.12-0.1,0.16
				c-0.64,0.45-1.15,0.9-1.56,1.37C29.59,28.54,29.56,28.56,29.53,28.57z M28.57,27.09c0.37,0.24,0.67,0.59,0.9,0.9
				c0.35-0.36,0.75-0.72,1.23-1.07c-0.32-0.38-0.59-0.85-0.82-1.39C29.48,26.18,29.05,26.7,28.57,27.09z"/>
		</g>
		<g>
			<path class="st2" d="M20.37,23.87c-0.29,0.55-0.66,1.06-1.16,1.4c0.34,0.15,0.63,0.47,0.85,0.82c0.31-0.35,0.67-0.65,1.05-0.93
				C20.77,24.81,20.53,24.34,20.37,23.87z"/>
			<path class="st2" d="M20.15,26.3c-0.03,0.02-0.08,0.02-0.12,0.02c-0.07-0.01-0.14-0.05-0.18-0.11c-0.23-0.37-0.48-0.62-0.75-0.73
				c-0.08-0.03-0.13-0.11-0.14-0.19c-0.01-0.09,0.03-0.17,0.1-0.22c0.42-0.29,0.76-0.71,1.09-1.32c0.04-0.08,0.13-0.13,0.22-0.12
				c0.09,0.01,0.17,0.07,0.2,0.16c0.18,0.5,0.42,0.92,0.69,1.21c0.04,0.05,0.07,0.11,0.06,0.18c0,0.06-0.04,0.12-0.1,0.16
				c-0.42,0.3-0.75,0.59-1.02,0.89C20.21,26.26,20.18,26.28,20.15,26.3z M19.61,25.24c0.18,0.14,0.34,0.31,0.47,0.48
				c0.2-0.2,0.43-0.4,0.69-0.6c-0.17-0.21-0.31-0.46-0.44-0.74C20.11,24.74,19.87,25.02,19.61,25.24z"/>
		</g>
		<g>
			<path class="st2" d="M27.29,12.29c0.45-0.61,1.04-1.04,1.86-1.1c0.77-0.06,1.53,0.26,2.22,0.63c-0.34-0.64-0.55-1.45,0.25-1.8
				c0.27-0.12,0.55-0.15,0.83-0.12c-1.79-2.1-4.03-3.43-6.36-3.63C27.28,7.87,27.42,10.32,27.29,12.29z"/>
			<path class="st2" d="M31.47,12.03c-0.06,0.03-0.14,0.03-0.21-0.01c-0.59-0.31-1.35-0.66-2.09-0.6c-0.68,0.05-1.22,0.37-1.69,1.01
				c-0.06,0.08-0.17,0.11-0.26,0.08c-0.09-0.03-0.16-0.13-0.15-0.23c0.17-2.63-0.22-4.61-1.15-5.87c-0.05-0.07-0.06-0.17-0.02-0.25
				c0.05-0.08,0.13-0.12,0.22-0.12c2.33,0.2,4.63,1.5,6.49,3.67c0.03,0.02,0.05,0.05,0.07,0.09c0.05,0.11,0.01,0.25-0.11,0.31
				l-0.01,0c-0.04,0.02-0.08,0.02-0.12,0.02c-0.27-0.03-0.5,0-0.72,0.1l0,0c-0.21,0.1-0.33,0.22-0.38,0.37
				c-0.09,0.25-0.01,0.62,0.22,1.06c0.01,0.01,0.02,0.03,0.03,0.05C31.64,11.83,31.59,11.97,31.47,12.03L31.47,12.03z M28.23,11.2
				c0.28-0.13,0.59-0.21,0.91-0.24c0.63-0.05,1.25,0.14,1.79,0.38c-0.1-0.33-0.11-0.63-0.02-0.88c0.09-0.27,0.3-0.49,0.6-0.63
				l0.04-0.02c0.13-0.06,0.27-0.1,0.42-0.12c-1.59-1.73-3.48-2.82-5.4-3.13c0.73,1.22,1.06,2.93,0.99,5.09
				C27.76,11.46,27.98,11.31,28.23,11.2z"/>
		</g>
		<g>
			<path class="st2" d="M37.48,16.35c0,0,3.19,5.43,0.88,10.02c0,0-3.35-2.76-5.28-0.53c0,0,1.53-2.57-0.9-3.89
				c0,0,4.2-0.08,4.92-2.16C37.8,17.72,37.48,16.35,37.48,16.35z"/>
			<path class="st2" d="M38.45,26.57c-0.02,0.01-0.03,0.02-0.05,0.02c-0.07,0.02-0.14,0-0.2-0.05c-0.02-0.02-2.43-1.97-4.2-1.14
				c-0.28,0.13-0.53,0.33-0.75,0.58c-0.08,0.09-0.21,0.11-0.31,0.03c-0.1-0.07-0.12-0.2-0.07-0.3c0.01-0.01,0.66-1.13,0.37-2.21
				c-0.15-0.56-0.55-1.03-1.18-1.37c-0.09-0.05-0.14-0.16-0.12-0.26s0.11-0.17,0.22-0.17c0.02,0,1.93-0.05,3.34-0.71l0,0
				c0.72-0.34,1.17-0.77,1.35-1.3c0.68-1.98,0.39-3.3,0.38-3.31c-0.03-0.11,0.04-0.22,0.14-0.27c0.11-0.04,0.23,0,0.28,0.1
				c0.03,0.05,0.82,1.4,1.33,3.34c0.68,2.58,0.52,4.96-0.44,6.89C38.54,26.52,38.5,26.55,38.45,26.57z M33.81,24.98
				c1.7-0.8,3.77,0.52,4.46,1.02c1.46-3.2,0.26-6.81-0.49-8.53c-0.02,0.6-0.14,1.42-0.47,2.38c-0.22,0.64-0.76,1.17-1.6,1.57l0,0
				c-0.97,0.45-2.13,0.63-2.85,0.71c0.42,0.35,0.7,0.77,0.83,1.27c0.17,0.61,0.09,1.21-0.05,1.68
				C33.7,25.04,33.76,25.01,33.81,24.98z"/>
		</g>
		<g>
			<path class="st2" d="M21.78,30.92c-0.05-0.55,0.17-1,0.52-1.4c-1.02,0.4-2.2,0.61-3.04,0.05c-1.82-1.23-2.37-2.52-2.37-2.52
				s0.66,5.75,4.76,8.24c-0.32-0.92-0.04-2.15,0.31-2.94c0.15-0.32,0.33-0.6,0.55-0.84C22.12,31.5,21.82,31.36,21.78,30.92z"/>
			<path class="st2" d="M21.75,35.5c-0.07,0.03-0.15,0.03-0.21-0.01c-4.15-2.52-4.85-8.17-4.87-8.4c-0.01-0.11,0.06-0.22,0.17-0.25
				s0.23,0.03,0.27,0.13c0.01,0.01,0.56,1.24,2.29,2.42c0.8,0.54,1.98,0.26,2.83-0.07c0.1-0.04,0.22,0,0.28,0.08
				c0.06,0.09,0.05,0.21-0.02,0.29c-0.35,0.39-0.5,0.79-0.46,1.22c0.02,0.19,0.09,0.38,0.5,0.39c0.09,0,0.17,0.06,0.21,0.14
				c0.04,0.08,0.02,0.18-0.04,0.25c-0.22,0.24-0.38,0.49-0.51,0.78c-0.36,0.79-0.59,1.95-0.3,2.77c0.03,0.09,0,0.2-0.07,0.26
				C21.78,35.48,21.76,35.49,21.75,35.5z M17.33,28.14c0.39,1.67,1.44,4.83,3.97,6.65c-0.1-0.89,0.15-1.87,0.45-2.53
				c0.09-0.2,0.2-0.4,0.33-0.58c-0.41-0.15-0.51-0.5-0.54-0.73c-0.03-0.34,0.02-0.67,0.17-0.98c-1.08,0.3-1.95,0.24-2.59-0.2
				C18.29,29.19,17.71,28.61,17.33,28.14z"/>
		</g>
		<g>
			<path class="st2" d="M30.21,18.53l-3.12,0.86c0,0,1.32,0.39,1.37,2.26l2.16,0.69C30.62,22.35,29.35,20.23,30.21,18.53z"/>
			<path class="st2" d="M30.72,22.55c-0.05,0.02-0.11,0.03-0.17,0.01l-2.16-0.69c-0.09-0.03-0.16-0.11-0.16-0.21
				c-0.04-1.67-1.16-2.03-1.2-2.05c-0.1-0.03-0.16-0.13-0.16-0.22c0-0.1,0.07-0.19,0.17-0.22l3.12-0.86c0.09-0.03,0.18,0,0.24,0.08
				s0.07,0.17,0.03,0.25c-0.79,1.56,0.39,3.57,0.4,3.6c0.05,0.08,0.05,0.19-0.02,0.26C30.78,22.52,30.75,22.54,30.72,22.55z
				 M28.68,21.48l1.49,0.48c-0.3-0.67-0.71-1.91-0.34-3.09l-2.13,0.59C28.11,19.77,28.61,20.37,28.68,21.48z"/>
		</g>
		<g>
			<path class="st2" d="M25.14,28.04c0,0,0.79,3.23-0.99,4.98c0,0,3.13-1.54,4.31,0.46C28.46,33.48,28.82,31.18,25.14,28.04z"/>
			<path class="st2" d="M28.55,33.69c-0.02,0.01-0.03,0.02-0.05,0.02c-0.1,0.02-0.19-0.03-0.24-0.11c-1.01-1.71-3.69-0.52-3.99-0.38
				c-0.1,0.05-0.24,0.02-0.3-0.07c-0.07-0.09-0.07-0.21,0.02-0.29c1.67-1.64,0.94-4.73,0.93-4.76c-0.02-0.09,0.02-0.2,0.11-0.25
				s0.2-0.04,0.27,0.02c3.74,3.18,3.41,5.55,3.39,5.65C28.67,33.59,28.62,33.66,28.55,33.69z M24.86,32.51
				c0.91-0.29,2.36-0.54,3.32,0.29c-0.15-0.81-0.72-2.3-2.69-4.14C25.6,29.56,25.66,31.21,24.86,32.51z"/>
		</g>
		<polygon class="st2" points="32.14,29.28 39.7,37.93 40.51,36.35 		"/>
		<polygon class="st2" points="23.85,35.18 21.23,43.71 20.16,42.85 		"/>
		<polygon class="st2" points="20.31,17.43 12.09,11.96 13.17,11.1 		"/>
		<polygon class="st2" points="37.59,6.1 28.23,16.18 38.14,6.73 		"/>
		<g>
			<path class="st2" d="M25.18,39.64c0,0,4.57,1.56,8.12-1.22c0,0-3.05-1.04-3.86-3.48c0,0-1.73,3.57-4.4,1.24
				c0,0,1.84,2.57,1.16,2.61C25.54,38.84,25.18,39.64,25.18,39.64z"/>
			<path class="st2" d="M31.97,39.51c-3.28,1.54-6.72,0.4-6.86,0.35c-0.06-0.02-0.11-0.07-0.14-0.13c-0.03-0.06-0.03-0.13,0-0.19
				c0.01-0.03,0.28-0.62,0.81-0.87c0.11-0.05,0.23-0.09,0.35-0.1c-0.03-0.31-0.58-1.29-1.26-2.25c-0.07-0.09-0.06-0.22,0.03-0.3
				c0.09-0.08,0.22-0.08,0.31,0c0.83,0.72,1.64,0.91,2.41,0.54l0,0c1.01-0.47,1.62-1.71,1.62-1.72c0.04-0.08,0.13-0.14,0.22-0.13
				s0.17,0.07,0.21,0.16c0.76,2.3,3.69,3.32,3.71,3.33c0.08,0.02,0.14,0.1,0.15,0.18c0.01,0.09-0.02,0.17-0.08,0.22
				C32.99,38.96,32.49,39.27,31.97,39.51z M25.53,39.5c0.87,0.23,3.65,0.81,6.24-0.4c0.37-0.17,0.72-0.38,1.06-0.61
				c-0.81-0.35-2.62-1.29-3.42-3.01c-0.29,0.45-0.84,1.15-1.6,1.51l0,0c-0.48,0.22-1.15,0.36-1.94,0.01
				c0.41,0.66,0.8,1.41,0.71,1.75c-0.04,0.16-0.18,0.27-0.35,0.28C25.94,39.05,25.67,39.3,25.53,39.5z"/>
		</g>
	</g>
</g>
<g>
	<g>
		<g>
			<path class="st3" d="M80.74,84.61c0.55-0.39,1.1-0.84,1.36-1.48c0.34-0.85,0.28-1.71,0.26-2.59c1.14,1.1,2.72,2.04,4.32,2.28
				c-1.71,0.93-3.74,1.56-5.95,1.8C80.72,84.61,80.73,84.61,80.74,84.61z"/>
			<path class="st3" d="M80.5,84.55c-0.02,0.05-0.02,0.1,0,0.15c0.04,0.1,0.13,0.17,0.23,0.16c2.19-0.24,4.28-0.87,6.04-1.83
				c0.09-0.05,0.14-0.15,0.12-0.25c-0.02-0.1-0.1-0.18-0.2-0.19c-1.39-0.21-2.94-1.02-4.15-2.18c-0.03-0.04-0.07-0.08-0.13-0.09
				c-0.12-0.04-0.26,0.03-0.3,0.15l0,0.01c-0.01,0.02-0.01,0.05-0.01,0.08l0.01,0.22c0.02,0.8,0.05,1.54-0.25,2.28
				c-0.25,0.6-0.78,1.04-1.28,1.37C80.56,84.44,80.52,84.49,80.5,84.55z M85.97,82.91c-1.34,0.64-2.84,1.11-4.42,1.36
				c0.32-0.29,0.6-0.63,0.77-1.05c0.28-0.71,0.3-1.43,0.29-2.13C83.63,81.97,84.81,82.6,85.97,82.91z"/>
		</g>
		<g>
			<path class="st3" d="M88.75,76.25c1.72-0.18,3.7-1.19,3.76-2.98c0.55,0.27,1.31,0.45,2.02,0.43c-0.32,1.82-1.34,3.47-2.84,4.81
				C91.26,77.52,89.81,76.72,88.75,76.25z"/>
			<path class="st3" d="M88.52,76.17c0,0.01-0.01,0.02-0.01,0.03c-0.02,0.1,0.04,0.21,0.14,0.25c1.51,0.68,2.51,1.44,2.82,2.13
				c0.03,0.07,0.09,0.12,0.17,0.13s0.15-0.01,0.21-0.06c1.58-1.4,2.6-3.13,2.92-4.94c0.02-0.07-0.01-0.14-0.05-0.19
				c-0.04-0.05-0.12-0.08-0.18-0.08c-0.61,0.02-1.32-0.13-1.86-0.38c-0.02-0.02-0.05-0.03-0.08-0.04c-0.12-0.04-0.25,0.03-0.3,0.16
				c-0.01,0.03-0.01,0.04-0.01,0.06c-0.01,0.19-0.04,0.39-0.1,0.57c-0.42,1.31-2.03,2.04-3.45,2.19
				C88.63,76.02,88.55,76.09,88.52,76.17z M91.75,78.12c-0.46-0.71-1.36-1.31-2.23-1.77c1.36-0.31,2.7-1.12,3.11-2.39
				c0.04-0.12,0.07-0.24,0.09-0.36c0.48,0.18,1.01,0.29,1.53,0.32C93.91,75.45,93.05,76.9,91.75,78.12z"/>
		</g>
		<g>
			<path class="st3" d="M80.11,78.79c-0.44,0.84-0.96,1.65-1.59,2.37c-0.89-0.06-1.75-0.18-2.58-0.35
				C77.42,80.39,78.85,79.63,80.11,78.79z"/>
			<path class="st3" d="M75.71,80.73c-0.01,0.02-0.01,0.05-0.01,0.08c0.01,0.11,0.08,0.2,0.19,0.22c0.86,0.18,1.74,0.3,2.62,0.36
				c0.07,0,0.14-0.02,0.19-0.08c0.61-0.68,1.15-1.49,1.63-2.42c0.05-0.09,0.03-0.21-0.05-0.28c-0.08-0.07-0.2-0.08-0.28-0.02
				c-1.45,0.96-2.83,1.63-4.11,1.98C75.79,80.6,75.73,80.66,75.71,80.73z M78.41,80.92c-0.51-0.04-1.02-0.09-1.52-0.17
				c0.83-0.31,1.68-0.72,2.56-1.25C79.13,80.01,78.78,80.49,78.41,80.92z"/>
		</g>
		<g>
			<path class="st3" d="M87.35,71.76c0.25,0.25,0.53,0.49,0.84,0.68c-0.36,0.38-0.73,0.76-1.08,1.15c-0.52-0.23-1.08-0.34-1.64-0.44
				C86.14,72.78,86.77,72.28,87.35,71.76z"/>
			<path class="st3" d="M85.24,73.09c-0.01,0.04-0.02,0.07-0.01,0.11c0.02,0.1,0.09,0.17,0.2,0.19c0.53,0.09,1.08,0.19,1.59,0.42
				c0.09,0.04,0.2,0.02,0.27-0.06c0.29-0.33,0.6-0.65,0.9-0.96l0.17-0.18c0.05-0.05,0.07-0.12,0.07-0.19
				c-0.01-0.07-0.05-0.13-0.11-0.17c-0.29-0.18-0.55-0.4-0.79-0.65c-0.09-0.09-0.23-0.09-0.32-0.01c-0.69,0.61-1.28,1.05-1.85,1.37
				C85.29,72.98,85.26,73.03,85.24,73.09z M87.04,73.32c-0.31-0.12-0.62-0.21-0.93-0.27c0.39-0.26,0.8-0.57,1.24-0.96
				c0.15,0.14,0.31,0.27,0.48,0.4C87.57,72.75,87.3,73.02,87.04,73.32z"/>
		</g>
		<g>
			<path class="st3" d="M86.98,62.37c-0.97,0.69-1.84,1.52-2.37,2.57c-0.36-0.61-1.04-1.09-1.77-1.41c0.59-0.68,1.07-1.44,1.49-2.24
				C85.09,61.83,86.05,62.17,86.98,62.37z"/>
			<path class="st3" d="M82.61,63.46c-0.01,0.04-0.01,0.08,0,0.12c0.02,0.07,0.07,0.14,0.13,0.16c0.56,0.25,1.29,0.68,1.66,1.32
				c0.04,0.07,0.12,0.12,0.21,0.11c0.09,0,0.16-0.05,0.2-0.13c0.45-0.88,1.2-1.69,2.31-2.48c0.08-0.05,0.11-0.15,0.1-0.24
				s-0.09-0.16-0.18-0.18c-1.02-0.21-1.9-0.58-2.56-1.05c-0.06-0.04-0.13-0.05-0.19-0.04s-0.12,0.06-0.15,0.12
				c-0.47,0.88-0.94,1.6-1.47,2.2C82.64,63.4,82.62,63.43,82.61,63.46z M84.58,64.5c-0.38-0.46-0.9-0.81-1.37-1.05
				c0.42-0.52,0.82-1.12,1.2-1.82c0.57,0.37,1.25,0.65,2.02,0.86C85.62,63.13,85.01,63.79,84.58,64.5z"/>
		</g>
		<g>
			<path class="st3" d="M75.07,67.98c-0.78,0.56-1.49,1.22-1.91,2.07c-0.29-0.5-0.84-0.87-1.42-1.14c0.48-0.54,0.86-1.17,1.21-1.81
				C73.54,67.54,74.31,67.82,75.07,67.98z"/>
			<path class="st3" d="M71.5,68.84c-0.01,0.04-0.01,0.08,0,0.12c0.02,0.07,0.07,0.14,0.13,0.16c0.44,0.2,1.02,0.54,1.32,1.04
				c0.04,0.07,0.12,0.12,0.21,0.11c0.09,0,0.16-0.05,0.2-0.13c0.36-0.72,0.94-1.34,1.84-1.98c0.08-0.06,0.11-0.15,0.1-0.24
				c-0.02-0.09-0.09-0.16-0.18-0.18c-0.82-0.17-1.52-0.46-2.04-0.84c-0.06-0.04-0.13-0.05-0.19-0.04s-0.12,0.06-0.15,0.12
				c-0.37,0.71-0.76,1.28-1.17,1.76C71.53,68.78,71.51,68.81,71.5,68.84z M73.12,69.61c-0.29-0.34-0.68-0.6-1.03-0.78
				c0.32-0.4,0.62-0.86,0.92-1.38c0.43,0.27,0.94,0.49,1.51,0.65C73.92,68.57,73.45,69.08,73.12,69.61z"/>
		</g>
		<g>
			<path class="st3" d="M77.47,77.46c-0.52,0.37-0.98,0.8-1.26,1.36c-0.19-0.32-0.55-0.57-0.94-0.75c0.31-0.36,0.57-0.77,0.79-1.19
				C76.47,77.18,76.98,77.36,77.47,77.46z"/>
			<path class="st3" d="M75.05,78.01c-0.01,0.04-0.01,0.08,0,0.12c0.02,0.07,0.07,0.14,0.13,0.16c0.4,0.18,0.69,0.41,0.83,0.66
				c0.04,0.07,0.12,0.12,0.21,0.11c0.09,0,0.16-0.05,0.2-0.13c0.23-0.46,0.61-0.87,1.19-1.28c0.08-0.05,0.11-0.15,0.1-0.24
				c-0.02-0.09-0.09-0.16-0.19-0.18c-0.52-0.11-0.98-0.3-1.32-0.54c-0.06-0.04-0.13-0.05-0.19-0.04c-0.06,0.01-0.12,0.06-0.15,0.12
				c-0.25,0.46-0.49,0.84-0.76,1.15C75.08,77.95,75.06,77.98,75.05,78.01z M76.19,78.41c-0.16-0.17-0.36-0.3-0.55-0.41
				c0.17-0.23,0.34-0.49,0.51-0.78c0.23,0.14,0.51,0.25,0.8,0.35C76.63,77.84,76.38,78.12,76.19,78.41z"/>
		</g>
		<g>
			<path class="st3" d="M88.24,68.93c0.56-0.54,0.91-1.18,0.86-2.03c-0.04-0.78-0.47-1.51-0.93-2.16c0.69,0.26,1.53,0.36,1.78-0.5
				c0.09-0.29,0.07-0.58,0.01-0.86c2.36,1.52,4,3.61,4.52,5.94C92.7,68.34,90.21,68.54,88.24,68.93z"/>
			<path class="st3" d="M87.94,64.67c-0.02,0.07-0.01,0.14,0.04,0.21c0.39,0.55,0.85,1.27,0.88,2.03c0.04,0.69-0.21,1.28-0.79,1.84
				c-0.08,0.07-0.09,0.19-0.05,0.28c0.05,0.09,0.15,0.14,0.25,0.12c2.64-0.52,4.68-0.4,6.08,0.38c0.08,0.05,0.18,0.04,0.25-0.01
				c0.07-0.06,0.11-0.15,0.09-0.24c-0.51-2.32-2.14-4.47-4.58-6.06c-0.02-0.03-0.06-0.05-0.1-0.06c-0.12-0.04-0.26,0.03-0.3,0.15
				l0,0.01c-0.01,0.04-0.01,0.08-0.01,0.13c0.07,0.26,0.06,0.51,0,0.74l0,0c-0.07,0.23-0.18,0.36-0.33,0.43
				c-0.24,0.12-0.62,0.09-1.1-0.08c-0.02-0.01-0.03-0.02-0.06-0.03C88.12,64.48,87.98,64.54,87.94,64.67L87.94,64.67z M89.22,67.84
				c0.1-0.3,0.14-0.62,0.12-0.95c-0.03-0.64-0.31-1.25-0.62-1.76c0.35,0.06,0.65,0.02,0.89-0.1c0.26-0.13,0.45-0.36,0.56-0.69
				l0.01-0.04c0.04-0.14,0.06-0.29,0.07-0.44c1.96,1.38,3.32,3.14,3.88,5.03c-1.33-0.57-3.1-0.68-5.27-0.32
				C89.01,68.34,89.14,68.1,89.22,67.84z"/>
		</g>
		<g>
			<path class="st3" d="M82.78,59.18c0,0-5.9-2.49-10.23,0.46c0,0,3.23,3.02,1.24,5.25c0,0,2.39-1.89,4.05,0.39
				c0,0-0.48-4.25,1.52-5.25C81.35,59.04,82.78,59.18,82.78,59.18z"/>
			<path class="st3" d="M72.33,59.57c-0.01,0.02-0.01,0.04-0.01,0.05c-0.01,0.07,0.02,0.14,0.07,0.19c0.02,0.02,2.31,2.19,1.71,4.09
				c-0.1,0.3-0.26,0.58-0.49,0.84c-0.08,0.09-0.08,0.23,0.01,0.32s0.22,0.1,0.32,0.03c0.01-0.01,1.06-0.82,2.18-0.67
				c0.59,0.08,1.11,0.42,1.54,1.01c0.06,0.09,0.18,0.12,0.28,0.08c0.1-0.04,0.16-0.14,0.14-0.24c0-0.02-0.21-1.96,0.27-3.47l0,0
				c0.24-0.77,0.62-1.29,1.13-1.54c1.91-0.95,3.28-0.83,3.29-0.83c0.12,0.01,0.22-0.07,0.25-0.18c0.03-0.11-0.03-0.23-0.14-0.27
				c-0.06-0.03-1.53-0.64-3.55-0.89c-2.69-0.34-5.08,0.13-6.9,1.37C72.37,59.47,72.34,59.52,72.33,59.57z M74.55,64.04
				c0.58-1.82-1.03-3.74-1.63-4.37c3.04-1.9,6.84-1.18,8.68-0.64c-0.61,0.1-1.41,0.33-2.34,0.79c-0.62,0.31-1.08,0.92-1.37,1.82l0,0
				c-0.33,1.04-0.35,2.23-0.33,2.97c-0.41-0.37-0.87-0.6-1.39-0.67c-0.63-0.09-1.23,0.08-1.69,0.28
				C74.5,64.16,74.53,64.1,74.55,64.04z"/>
		</g>
		<g>
			<path class="st3" d="M70.17,76.98c0.56-0.02,0.99-0.3,1.34-0.71c-0.26,1.09-0.33,2.31,0.36,3.07c1.48,1.67,2.86,2.06,2.86,2.06
				s-5.89,0.11-8.96-3.71c0.97,0.2,2.18-0.24,2.93-0.71c0.3-0.19,0.56-0.42,0.77-0.67C69.53,76.71,69.72,77,70.17,76.98z"/>
			<path class="st3" d="M65.55,77.63c-0.02,0.07-0.01,0.15,0.04,0.22c3.09,3.86,8.89,3.8,9.14,3.8c0.12,0,0.21-0.09,0.23-0.21
				c0.02-0.12-0.06-0.23-0.17-0.26c-0.01,0-1.33-0.4-2.75-1.99c-0.65-0.73-0.53-1.96-0.31-2.87c0.03-0.11-0.03-0.22-0.12-0.27
				c-0.1-0.05-0.21-0.03-0.29,0.06c-0.35,0.41-0.73,0.61-1.17,0.63c-0.2,0.01-0.4-0.04-0.46-0.46c-0.01-0.09-0.08-0.17-0.17-0.19
				c-0.09-0.03-0.18,0-0.25,0.07c-0.21,0.25-0.45,0.45-0.72,0.62c-0.75,0.47-1.89,0.85-2.75,0.68c-0.1-0.02-0.2,0.03-0.25,0.11
				C65.56,77.59,65.56,77.61,65.55,77.63z M73.57,81.1c-1.74-0.17-5.07-0.81-7.24-3.12c0.91-0.02,1.87-0.4,2.49-0.79
				c0.19-0.12,0.38-0.26,0.54-0.42c0.21,0.39,0.57,0.45,0.8,0.44c0.35-0.01,0.67-0.11,0.97-0.31c-0.16,1.13,0.02,2,0.55,2.59
				C72.38,80.27,73.05,80.78,73.57,81.1z"/>
		</g>
		<g>
			<path class="st3" d="M81.55,66.81l-0.45,3.27c0,0-0.57-1.28-2.47-1.08l-0.99-2.09C77.64,66.91,79.94,67.91,81.55,66.81z"/>
			<path class="st3" d="M77.42,66.84c-0.02,0.06-0.02,0.12,0.01,0.17l0.99,2.09c0.04,0.09,0.14,0.14,0.23,0.13
				c1.69-0.18,2.21,0.9,2.23,0.94c0.04,0.1,0.15,0.15,0.25,0.13c0.1-0.02,0.19-0.1,0.2-0.2l0.45-3.27c0.01-0.09-0.03-0.18-0.11-0.23
				c-0.08-0.05-0.18-0.04-0.26,0.01c-1.47,1.01-3.66,0.08-3.68,0.08c-0.09-0.04-0.2-0.02-0.26,0.05
				C77.45,66.77,77.43,66.8,77.42,66.84z M78.77,68.75l-0.68-1.44c0.72,0.21,2.02,0.46,3.16-0.07l-0.31,2.23
				C80.58,69.1,79.9,68.68,78.77,68.75z"/>
		</g>
		<g>
			<path class="st3" d="M72.62,73.2c0,0-3.37-0.37-4.9,1.67c0,0,1.13-3.36-1.04-4.29C66.68,70.59,68.96,69.91,72.62,73.2z"/>
			<path class="st3" d="M66.46,70.52c-0.01,0.02-0.01,0.04-0.01,0.06c0,0.1,0.05,0.19,0.14,0.23c1.86,0.79,1.02,3.65,0.92,3.98
				c-0.03,0.11,0.01,0.24,0.11,0.29c0.1,0.05,0.22,0.04,0.29-0.06c1.43-1.91,4.65-1.58,4.69-1.58c0.1,0.01,0.2-0.05,0.24-0.14
				s0.02-0.2-0.06-0.27c-3.71-3.35-6.06-2.7-6.16-2.67C66.54,70.39,66.49,70.44,66.46,70.52z M68.15,74.09
				c0.17-0.96,0.23-2.46-0.73-3.32c0.84,0.04,2.42,0.42,4.54,2.17C71.03,72.94,69.36,73.1,68.15,74.09z"/>
		</g>
		<polygon class="st3" points="70.44,66.3 60.7,59.82 62.18,58.8 		"/>
		<polygon class="st3" points="65.59,75.47 57.33,79.25 58.34,80.22 		"/>
		<polygon class="st3" points="83.99,76.66 90.61,84.23 91.33,83.02 		"/>
		<polygon class="st3" points="93.11,57.7 84.19,68.5 92.4,57.23 		"/>
		<g>
			<path class="st3" d="M60.91,74.71c0,0-2.19-4.41,0.14-8.36c0,0,1.45,2.94,4.03,3.43c0,0-3.37,2.22-0.67,4.6
				c0,0-2.84-1.51-2.79-0.82C61.67,74.25,60.91,74.71,60.91,74.71z"/>
			<path class="st3" d="M60.13,67.85c-1.11,3.52,0.5,6.84,0.57,6.97c0.03,0.06,0.08,0.1,0.14,0.12c0.06,0.02,0.13,0.01,0.19-0.03
				c0.02-0.01,0.59-0.37,0.77-0.93c0.04-0.12,0.06-0.25,0.06-0.37c0.32-0.01,1.38,0.42,2.44,0.97c0.1,0.05,0.23,0.03,0.3-0.07
				c0.07-0.1,0.05-0.23-0.04-0.31c-0.84-0.74-1.14-1.53-0.87-2.36l0,0c0.34-1.08,1.51-1.86,1.52-1.87c0.08-0.06,0.12-0.15,0.1-0.24
				c-0.02-0.09-0.09-0.16-0.18-0.19c-2.43-0.46-3.85-3.28-3.86-3.3c-0.04-0.08-0.12-0.12-0.2-0.13c-0.09,0-0.17,0.04-0.21,0.12
				C60.55,66.74,60.31,67.28,60.13,67.85z M61,74.35c-0.35-0.85-1.31-3.57-0.43-6.35c0.13-0.4,0.29-0.78,0.47-1.15
				c0.46,0.77,1.65,2.48,3.5,3.05c-0.42,0.35-1.05,1-1.31,1.81l0,0c-0.16,0.51-0.21,1.2,0.25,1.96c-0.72-0.33-1.53-0.62-1.87-0.48
				c-0.16,0.07-0.25,0.22-0.24,0.39C61.4,73.87,61.19,74.17,61,74.35z"/>
		</g>
	</g>
</g>
<g>
	<g>
		<g>
			<path class="st4" d="M7.42,25.08c1.15-0.88,2.43-1.71,3.91-1.82c1.96-0.15,3.67,0.52,5.45,1.15c-1.52-3.05-2.4-6.87-1.86-10.29
				c-3.01,2.9-5.62,6.64-7.53,11C7.41,25.1,7.41,25.09,7.42,25.08z"/>
			<path class="st4" d="M7.39,25.59c-0.11,0-0.22-0.03-0.3-0.1c-0.18-0.14-0.26-0.37-0.17-0.58c1.9-4.32,4.55-8.18,7.65-11.16
				c0.17-0.15,0.4-0.19,0.59-0.08c0.19,0.1,0.3,0.32,0.26,0.52c-0.47,2.98,0.19,6.67,1.77,9.89c0.07,0.08,0.11,0.19,0.11,0.32
				c0,0.28-0.22,0.51-0.5,0.51h-0.01c-0.06,0-0.11-0.01-0.17-0.03l-0.44-0.15c-1.61-0.57-3.12-1.1-4.82-0.97
				c-1.39,0.11-2.62,0.92-3.63,1.72C7.64,25.55,7.52,25.59,7.39,25.59z M14.28,15.47c-2.18,2.32-4.1,5.09-5.64,8.16
				c0.8-0.46,1.68-0.81,2.65-0.88c1.63-0.12,3.12,0.3,4.54,0.79C14.69,20.87,14.15,18.04,14.28,15.47z"/>
		</g>
		<g>
			<path class="st4" d="M42.96,15.18c1.48-3.41,4.83-6.79,8.53-5.75c-0.19-1.3-0.07-2.97,0.43-4.4c-3.93-0.52-7.95,0.5-11.66,2.7
				C41.97,9.23,42.67,12.69,42.96,15.18z"/>
			<path class="st4" d="M42.96,15.69c-0.03,0-0.04,0-0.07,0c-0.22-0.03-0.4-0.22-0.43-0.44c-0.41-3.52-1.31-6.06-2.54-7.13
				C39.8,8,39.75,7.85,39.76,7.69c0.01-0.17,0.11-0.3,0.25-0.39C43.89,4.98,48.08,4,52,4.53c0.15,0.01,0.29,0.11,0.36,0.23
				c0.08,0.12,0.1,0.29,0.04,0.43c-0.44,1.24-0.59,2.79-0.43,4.06C52,9.3,52,9.37,52,9.42c0,0.28-0.23,0.5-0.51,0.51
				c-0.07,0-0.1,0-0.14-0.01c-0.4-0.11-0.81-0.17-1.23-0.17c-2.95,0-5.49,2.83-6.71,5.64C43.35,15.56,43.15,15.69,42.96,15.69z
				 M41.07,7.84c1.16,1.39,1.81,3.63,2.17,5.7c1.52-2.57,4.03-4.8,6.9-4.8c0.26,0,0.52,0.01,0.79,0.06
				c-0.07-1.09,0.06-2.26,0.35-3.34C47.92,5.15,44.4,5.97,41.07,7.84z"/>
		</g>
		<g>
			<path class="st4" d="M27.74,31.67c-2,0.34-4,0.9-5.86,1.72c-0.46,1.85-0.77,3.7-0.95,5.51C22.73,36.13,25.21,33.7,27.74,31.67z"
				/>
			<path class="st4" d="M20.92,39.42c-0.06,0-0.11-0.01-0.17-0.03c-0.22-0.08-0.36-0.29-0.33-0.52c0.19-1.86,0.51-3.74,0.97-5.58
				c0.04-0.15,0.14-0.28,0.29-0.34c1.78-0.8,3.79-1.39,5.99-1.77c0.22-0.04,0.44,0.08,0.54,0.29c0.1,0.21,0.03,0.46-0.14,0.59
				c-2.9,2.33-5.16,4.72-6.71,7.11C21.25,39.33,21.09,39.42,20.92,39.42z M22.3,33.77c-0.25,1.06-0.47,2.14-0.63,3.22
				c1.16-1.49,2.57-2.97,4.21-4.42C24.61,32.89,23.4,33.29,22.3,33.77z"/>
		</g>
		<g>
			<path class="st4" d="M55.41,23.12c-0.36-0.68-0.65-1.41-0.86-2.15c-1.02,0.5-2.03,1.01-3.05,1.46c0.14,1.21,0,2.43-0.17,3.64
				C52.54,24.95,53.96,23.98,55.41,23.12z"/>
			<path class="st4" d="M51.32,26.59c-0.08,0-0.15-0.01-0.23-0.06c-0.19-0.1-0.29-0.3-0.26-0.52c0.17-1.13,0.3-2.33,0.17-3.52
				c-0.03-0.22,0.1-0.43,0.3-0.51c0.86-0.37,1.71-0.8,2.55-1.21l0.48-0.23c0.14-0.07,0.29-0.07,0.43-0.01s0.23,0.18,0.28,0.33
				c0.19,0.7,0.47,1.39,0.81,2.04c0.12,0.23,0.04,0.52-0.19,0.66c-1.7,1.01-2.97,1.93-3.99,2.9C51.57,26.55,51.45,26.59,51.32,26.59
				z M52.03,22.75c0.06,0.7,0.03,1.41-0.04,2.08c0.79-0.63,1.68-1.26,2.76-1.9c-0.19-0.4-0.36-0.81-0.5-1.24
				C53.52,22.05,52.79,22.42,52.03,22.75z"/>
		</g>
		<g>
			<path class="st4" d="M86.53,27.9c-2.04,1.53-4.29,2.79-6.79,3.19c1.02,1.13,1.55,2.83,1.74,4.53c1.77-0.76,3.64-1.26,5.55-1.6
				C86.41,32.11,86.32,29.94,86.53,27.9z"/>
			<path class="st4" d="M81.48,36.12c-0.08,0-0.18-0.03-0.25-0.07c-0.14-0.08-0.23-0.22-0.25-0.37c-0.15-1.3-0.57-3.08-1.61-4.25
				c-0.12-0.14-0.17-0.33-0.1-0.51c0.06-0.18,0.21-0.3,0.4-0.33c2.08-0.34,4.24-1.35,6.57-3.1c0.15-0.12,0.37-0.14,0.55-0.04
				c0.18,0.1,0.28,0.29,0.25,0.48c-0.22,2.22-0.06,4.26,0.48,5.91c0.04,0.14,0.03,0.29-0.04,0.41c-0.07,0.12-0.19,0.21-0.34,0.23
				c-2.1,0.39-3.88,0.9-5.44,1.57C81.62,36.11,81.55,36.12,81.48,36.12z M80.62,31.43c0.7,1.08,1.08,2.37,1.26,3.48
				c1.34-0.52,2.83-0.95,4.5-1.28c-0.39-1.39-0.52-2.97-0.44-4.69C84.1,30.2,82.35,31.02,80.62,31.43z"/>
		</g>
		<g>
			<path class="st4" d="M51.32,53c-1.64,1.23-3.45,2.25-5.46,2.57c0.83,0.91,1.24,2.28,1.41,3.64c1.42-0.62,2.94-1.01,4.47-1.3
				C51.23,56.39,51.16,54.64,51.32,53z"/>
			<path class="st4" d="M47.25,59.72c-0.08,0-0.18-0.03-0.25-0.07c-0.14-0.08-0.23-0.22-0.25-0.37c-0.12-1.02-0.44-2.44-1.28-3.37
				c-0.12-0.14-0.17-0.33-0.1-0.5c0.06-0.18,0.21-0.3,0.4-0.33c1.7-0.28,3.35-1.06,5.24-2.48c0.17-0.12,0.37-0.14,0.55-0.04
				c0.18,0.1,0.28,0.29,0.25,0.48c-0.18,1.78-0.04,3.41,0.39,4.72c0.04,0.14,0.03,0.29-0.04,0.41c-0.07,0.12-0.19,0.21-0.35,0.23
				c-1.68,0.3-3.1,0.72-4.36,1.26C47.39,59.7,47.32,59.72,47.25,59.72z M46.73,55.91c0.51,0.81,0.79,1.78,0.94,2.61
				c1.02-0.4,2.15-0.72,3.42-0.98c-0.28-1.05-0.39-2.24-0.34-3.51C49.37,54.96,48.03,55.58,46.73,55.91z"/>
		</g>
		<g>
			<path class="st4" d="M13.89,40.9c-1.09,0.81-2.28,1.48-3.6,1.7c0.54,0.61,0.81,1.5,0.92,2.4c0.94-0.4,1.93-0.66,2.94-0.86
				C13.82,43.13,13.78,41.98,13.89,40.9z"/>
			<path class="st4" d="M11.21,45.49c-0.08,0-0.18-0.03-0.25-0.07c-0.14-0.08-0.23-0.22-0.25-0.37c-0.11-0.94-0.39-1.67-0.8-2.13
				c-0.12-0.14-0.17-0.33-0.1-0.51c0.06-0.18,0.21-0.3,0.4-0.33c1.09-0.18,2.17-0.69,3.38-1.6c0.15-0.12,0.37-0.14,0.55-0.04
				c0.18,0.1,0.28,0.29,0.25,0.5c-0.11,1.15-0.03,2.19,0.25,3.04c0.04,0.14,0.03,0.29-0.04,0.41c-0.07,0.12-0.19,0.21-0.34,0.23
				c-1.1,0.21-2.03,0.47-2.84,0.81C11.35,45.48,11.28,45.49,11.21,45.49z M11.12,42.91c0.23,0.44,0.39,0.92,0.48,1.38
				c0.58-0.21,1.21-0.39,1.92-0.54c-0.14-0.57-0.19-1.2-0.19-1.86C12.58,42.38,11.85,42.71,11.12,42.91z"/>
		</g>
		<g>
			<path class="st4" d="M66.08,17.54c1.46-0.79,3.01-1.09,4.71-0.46c1.57,0.59,2.79,1.93,3.81,3.3c-0.08-1.59,0.26-3.37,2.17-3.31
				c0.65,0.01,1.23,0.22,1.75,0.54c-1.59-5.81-4.79-10.52-9.22-13.07C70.16,8.8,68.16,13.76,66.08,17.54z"/>
			<path class="st4" d="M74.59,20.89c-0.15,0-0.3-0.07-0.4-0.21c-0.87-1.16-2.06-2.55-3.57-3.12c-1.39-0.52-2.76-0.4-4.28,0.43
				c-0.19,0.11-0.44,0.07-0.59-0.08c-0.15-0.15-0.19-0.4-0.08-0.59C68.44,12.26,69.5,8,68.82,4.65c-0.04-0.19,0.04-0.39,0.19-0.51
				c0.17-0.11,0.37-0.12,0.55-0.03c4.42,2.55,7.76,7.26,9.43,13.28c0.04,0.07,0.06,0.15,0.06,0.23c0,0.28-0.22,0.51-0.5,0.51h-0.01
				c-0.1,0-0.18-0.03-0.26-0.07c-0.5-0.3-0.99-0.46-1.52-0.47l0,0c-0.51,0-0.86,0.12-1.09,0.39c-0.4,0.41-0.59,1.21-0.55,2.29
				c0.01,0.04,0.01,0.08,0.01,0.14C75.1,20.66,74.88,20.89,74.59,20.89L74.59,20.89z M68.95,16.24c0.68,0,1.35,0.12,2.01,0.37
				c1.3,0.48,2.35,1.44,3.19,2.4c0.11-0.75,0.37-1.34,0.77-1.75c0.44-0.46,1.03-0.69,1.77-0.69h0.1c0.32,0.01,0.63,0.06,0.95,0.15
				c-1.55-4.9-4.26-8.8-7.77-11.18c0.3,3.09-0.62,6.78-2.76,10.98C67.79,16.34,68.37,16.24,68.95,16.24z"/>
		</g>
		<g>
			<path class="st4" d="M89.97,50.44c0,0,1.27,13.68-7.55,20.62c0,0-4.07-8.56-9.94-5.93c0,0,5.41-3.66,1.82-8.53
				c0,0,8.38,3.73,11.72,0.29C89.33,53.45,89.97,50.44,89.97,50.44z"/>
			<path class="st4" d="M82.42,71.55c-0.04,0-0.08,0-0.11-0.01c-0.15-0.03-0.28-0.14-0.35-0.28c-0.03-0.06-2.98-6.14-7.24-6.14
				c-0.68,0-1.35,0.15-2.03,0.46c-0.23,0.11-0.52,0.01-0.65-0.22c-0.12-0.23-0.06-0.51,0.15-0.66c0.03-0.01,2.36-1.63,2.77-4.02
				c0.22-1.26-0.14-2.54-1.08-3.79c-0.14-0.18-0.12-0.44,0.01-0.62c0.14-0.18,0.39-0.23,0.59-0.14c0.04,0.01,3.86,1.7,7.26,1.7l0,0
				c1.74,0,3.04-0.44,3.88-1.31c3.17-3.28,3.82-6.15,3.82-6.18c0.06-0.25,0.28-0.4,0.52-0.4c0.25,0.01,0.46,0.21,0.47,0.46
				c0.01,0.14,0.32,3.53-0.47,7.84c-1.05,5.73-3.56,10.29-7.26,13.21C82.64,71.52,82.53,71.55,82.42,71.55z M74.72,64.11
				c4.1,0,6.97,4.53,7.87,6.15c5.85-4.98,6.83-13.22,6.93-17.32c-0.61,1.17-1.59,2.68-3.13,4.28c-1.04,1.06-2.58,1.61-4.61,1.61l0,0
				c-2.33,0-4.79-0.72-6.28-1.24c0.5,1.08,0.66,2.17,0.47,3.27c-0.23,1.35-0.95,2.47-1.66,3.27C74.44,64.13,74.58,64.11,74.72,64.11
				z"/>
		</g>
		<g>
			<path class="st4" d="M13.36,61.54c0.4-1.13,1.26-1.82,2.32-2.28c-2.39-0.17-4.93-0.83-6.04-2.72c-2.46-4.11-2.36-7.18-2.36-7.18
				s-4.03,11.98,1.78,20.7c0.22-2.11,1.9-4.29,3.34-5.52c0.59-0.5,1.21-0.87,1.86-1.15C13.5,63.01,13.05,62.45,13.36,61.54z"/>
			<path class="st4" d="M9.06,70.56c-0.17,0-0.32-0.08-0.41-0.22c-5.88-8.82-2.01-20.63-1.85-21.13c0.08-0.23,0.32-0.37,0.57-0.33
				c0.25,0.04,0.43,0.26,0.41,0.51c0,0.03-0.04,2.98,2.29,6.9c1.08,1.81,3.67,2.35,5.66,2.48c0.23,0.01,0.43,0.19,0.47,0.41
				c0.04,0.23-0.08,0.46-0.3,0.55c-1.06,0.44-1.72,1.09-2.04,1.97c-0.14,0.4-0.17,0.84,0.63,1.23c0.18,0.08,0.29,0.28,0.28,0.47
				c0,0.19-0.12,0.37-0.3,0.46c-0.65,0.28-1.21,0.62-1.72,1.06c-1.44,1.23-2.97,3.31-3.16,5.19c-0.03,0.21-0.18,0.39-0.39,0.44
				C9.14,70.56,9.1,70.56,9.06,70.56z M7.14,51.92c-0.77,3.67-1.63,10.87,1.7,16.82c0.62-1.85,2.03-3.56,3.23-4.58
				c0.37-0.32,0.77-0.61,1.2-0.84c-0.66-0.68-0.55-1.46-0.39-1.93c0.25-0.7,0.66-1.3,1.26-1.78c-2.41-0.4-4.07-1.34-4.94-2.8
				C8.06,54.9,7.46,53.2,7.14,51.92z"/>
		</g>
		<g>
			<path class="st4" d="M75.46,41.98l-6.97-1.19c0,0,2.25,2,0.61,5.74l3.63,3.37C72.74,49.9,72.19,44.54,75.46,41.98z"/>
			<path class="st4" d="M72.74,50.39c-0.12,0-0.25-0.04-0.35-0.14l-3.63-3.37c-0.15-0.14-0.21-0.37-0.12-0.57
				c1.46-3.34-0.41-5.09-0.48-5.16c-0.17-0.15-0.21-0.4-0.11-0.59c0.1-0.19,0.32-0.32,0.54-0.28l6.97,1.19
				c0.19,0.03,0.36,0.18,0.4,0.37c0.04,0.19-0.03,0.4-0.18,0.52c-3.01,2.36-2.54,7.42-2.54,7.48c0.03,0.21-0.08,0.41-0.28,0.5
				C72.89,50.38,72.82,50.39,72.74,50.39z M69.7,46.39l2.5,2.32c0.03-1.6,0.37-4.43,2.18-6.42l-4.75-0.81
				C70.16,42.47,70.59,44.13,69.7,46.39z"/>
		</g>
		<g>
			<path class="st4" d="M39.07,54.61c0,0-1.42,7.12-6.58,8.93c0,0,7.6-0.14,8.09,4.9C40.57,68.44,43.43,64.23,39.07,54.61z"/>
			<path class="st4" d="M40.57,68.94c-0.04,0-0.08,0-0.12-0.01c-0.21-0.06-0.36-0.23-0.37-0.44c-0.41-4.32-6.8-4.44-7.53-4.44
				c-0.25,0-0.48-0.18-0.52-0.41c-0.04-0.25,0.07-0.48,0.3-0.57c4.83-1.7,6.24-8.49,6.25-8.56c0.04-0.21,0.22-0.37,0.44-0.4
				c0.22-0.03,0.43,0.1,0.51,0.29c4.44,9.76,1.59,14.13,1.46,14.31C40.89,68.85,40.74,68.94,40.57,68.94z M34.36,63.17
				c2.07,0.28,5.17,1.12,6.31,3.64c0.46-1.74,0.72-5.22-1.49-10.68C38.57,58.03,37.17,61.35,34.36,63.17z"/>
		</g>
		<polygon class="st4" points="60.6,71.82 67.54,95.92 70.6,93.54 		"/>
		<polygon class="st4" points="33.75,66.36 9.89,92.71 7.47,87.8 		"/>
		<polygon class="st4" points="36.07,24.54 24.89,6.12 27.82,5.43 		"/>
		<polygon class="st4" points="94.69,18.77 66.85,30.02 95.19,20.52 		"/>
		<g>
			<path class="st4" d="M29.55,87.73c0,0,7.59,7.33,17.18,5.12c0,0-5.06-4.87-4.4-10.45c0,0-6.72,5.45-9.84-1.61
				c0,0,1.26,6.78-0.12,6.24C31,86.47,29.55,87.73,29.55,87.73z"/>
			<path class="st4" d="M43.07,93.76c-7.91,0-13.65-5.44-13.88-5.67c-0.1-0.1-0.15-0.23-0.15-0.37c0-0.14,0.07-0.28,0.18-0.37
				c0.04-0.04,1.13-0.97,2.4-0.97c0.28,0,0.54,0.04,0.79,0.12c0.22-0.65,0.04-3.09-0.41-5.62c-0.04-0.25,0.1-0.5,0.34-0.57
				c0.25-0.07,0.51,0.04,0.61,0.28c0.98,2.19,2.4,3.31,4.26,3.31l0,0c2.43,0,4.77-1.88,4.8-1.89c0.17-0.12,0.39-0.15,0.57-0.06
				c0.18,0.1,0.28,0.29,0.26,0.5c-0.62,5.26,4.21,9.98,4.25,10.02c0.14,0.12,0.18,0.32,0.14,0.5c-0.06,0.18-0.19,0.32-0.37,0.36
				C45.61,93.62,44.34,93.76,43.07,93.76z M30.36,87.77c1.5,1.26,6.46,4.98,12.71,4.98c0.9,0,1.78-0.08,2.66-0.22
				c-1.27-1.44-3.99-4.98-3.97-9.12c-0.99,0.62-2.72,1.5-4.55,1.5l0,0c-1.15,0-2.59-0.36-3.85-1.78c0.21,1.68,0.28,3.52-0.22,4.13
				c-0.23,0.28-0.61,0.37-0.95,0.23C31.59,87.26,30.83,87.51,30.36,87.77z"/>
		</g>
	</g>
</g>
<g>
	<g>
		<path class="st5" d="M40.21,75.51l-1.92,0.51c-1.38,0.39-1.59-0.76-1.22-1.69l1.21-3.07C29.22,72.54,19.65,64.03,17.23,55
			c-2.62-9.77,3.2-19.8,12.97-22.42l0.05-0.01l0,0c9.79-2.62,19.82,3.16,22.44,12.93c2.42,9.01-1.57,21.14-10.01,24.58l2.36,2.01
			c1.49,1.27,1,1.85-0.84,2.35l-1.11,0.3L40.21,75.51z"/>
	</g>
	<path class="st6" d="M18.83,45.31c-0.07,0.34,0.14,0.67,0.47,0.75c0.33,0.08,0.65-0.14,0.73-0.47c0.21-1.03,0.67-2.14,1.24-3.17
		c0.6-1.06,1.33-2.03,2.07-2.71c0.25-0.23,0.27-0.63,0.04-0.88c-0.23-0.25-0.61-0.28-0.86-0.04c-0.83,0.77-1.64,1.84-2.3,3.01
		C19.57,42.92,19.07,44.15,18.83,45.31z"/>
</g>
<g>
	<g>
		<path class="st7" d="M56.95,74.76l-1.92-0.52c-1.4-0.35-1-1.45-0.21-2.08l2.59-2.05c-8.49-3.42-12.52-15.58-10.1-24.61
			c2.62-9.77,12.67-15.55,22.45-12.93l0.05,0.01l0,0c9.79,2.62,15.58,12.65,12.97,22.42c-2.42,9.01-11.93,17.52-20.96,16.28
			l1.04,2.92c0.65,1.84-0.06,2.1-1.9,1.61l-1.11-0.3L56.95,74.76z"/>
	</g>
	<path class="st7" d="M53.53,37.91c-0.23,0.26-0.21,0.65,0.04,0.88c0.25,0.23,0.64,0.21,0.86-0.04c0.7-0.79,1.65-1.52,2.66-2.12
		c1.05-0.62,2.16-1.09,3.15-1.31c0.33-0.08,0.54-0.41,0.47-0.74c-0.07-0.33-0.39-0.55-0.73-0.47c-1.11,0.25-2.34,0.77-3.5,1.46
		C55.37,36.21,54.32,37.03,53.53,37.91z"/>
</g>
<path class="st8" d="M59.05,61.98"/>
<g>
	<g>
		<path class="st8" d="M48.53,70.29h-1.99c-1.44,0.02-1.34-1.15-0.74-1.95l1.97-2.65c-9.09-1.11-16.12-11.81-16.12-21.15
			c0-10.11,8.22-18.3,18.33-18.3h0.05l0,0c10.13,0,18.33,8.19,18.33,18.3c0,9.33-6.99,20.02-16.04,21.15l1.76,2.56
			c1.11,1.61,0.48,2.05-1.42,2.05h-1.15H48.53z"/>
	</g>
	<path class="st6" d="M35.69,35.58c-0.15,0.31-0.04,0.68,0.26,0.84c0.3,0.16,0.67,0.04,0.82-0.26c0.47-0.94,1.2-1.89,2.02-2.74
		c0.85-0.87,1.81-1.62,2.7-2.09c0.3-0.16,0.42-0.54,0.26-0.84c-0.15-0.3-0.52-0.43-0.82-0.26c-1.01,0.53-2.06,1.35-3,2.31
		C37.03,33.47,36.23,34.53,35.69,35.58z"/>
</g>
</svg>
