<?xml version="1.0" encoding="utf-8"?>
<!-- Generator: Adobe Illustrator 26.0.0, SVG Export Plug-In . SVG Version: 6.00 Build 0)  -->
<svg version="1.1" id="Layer_1" xmlns="http://www.w3.org/2000/svg" xmlns:xlink="http://www.w3.org/1999/xlink" x="0px" y="0px"
	 viewBox="0 0 100 100" style="enable-background:new 0 0 100 100;" xml:space="preserve">
<style type="text/css">
	.st0{fill:#FEBB18;}
	.st1{fill:#D24427;}
	.st2{fill:#F58133;}
	.st3{fill:#FFFFFF;}
</style>
<g>
	<path class="st0" d="M95.91,39.27c-16.19,5.75-30.34,15.02-1.64,36.34C61.51,61.17,59.42,77.09,58.33,100
		C49.76,72.61,36.78,65.48,5.51,80.56c19.54-23.93,27.73-31.15-1.48-56.49c0,0,41.4,23.91,41.33-19.32
		c4.77,36.21,27.24,15.71,33.05,7.56C72.4,22.78,61.27,40.2,95.91,39.27z"/>
	<path class="st1" d="M98.5,53.68c-17.13,0.2-33.41,4.4-12.77,33.94c-26.62-24.33-33.51-9.91-41.62,11.47
		C44.43,70.32,34.32,59.35,0,63.5C25.92,47.15,35.92,42.96,16.03,9.43c0,0,31.89,36.13,45.17-4.91
		c-6.65,35.89,20.99,23.74,29.02,17.91C81.29,30.4,65.35,43.32,98.5,53.68z"/>
	<path class="st2" d="M49.46,31.94c0.18,6.59,5.55,10.71,14.44,6.06c-11.1,9.63,7.42,8.77,7.42,8.77
		c-9.12,2.1-17.98,4.88-17.2,24.59c0,0-1.63-19.71-23.42-7.5c0,0,19.57-9.68,5.29-20C49.58,45.66,49.46,31.94,49.46,31.94z"/>
	<path class="st3" d="M49.85,35.98c0.14,5.09,4.28,8.27,11.15,4.68c-8.57,7.44,5.73,6.77,5.73,6.77
		c-7.04,1.62-13.88,3.77-13.28,18.99c0,0-1.26-15.22-18.09-5.79c0,0,15.12-7.47,4.09-15.44C49.94,46.58,49.85,35.98,49.85,35.98z"/>
	<path class="st2" d="M34.49,66.42L14.75,83.69C14.75,83.69,27.29,77.14,34.49,66.42z"/>
	<path class="st2" d="M45.6,70.65l4.37,22.38C49.97,93.03,50.53,77.76,45.6,70.65z"/>
	<path class="st2" d="M55.8,76.73L61.43,89C61.43,89,57.37,84.05,55.8,76.73z"/>
	<path class="st2" d="M44.56,26.57L35.36,0C35.36,0,37.87,12.91,44.56,26.57z"/>
	<path class="st2" d="M49.99,24.95V11.55C49.99,11.55,51.98,18.56,49.99,24.95z"/>
	<path class="st2" d="M73.24,41.55L100,33.38C100,33.38,86.81,35.59,73.24,41.55z"/>
	<path class="st2" d="M71.29,63.68l17.84,19.56C89.14,83.24,82.25,72.98,71.29,63.68z"/>
	<path class="st2" d="M76.51,46.87l10.28-0.11C86.79,46.76,81.09,48.21,76.51,46.87z"/>
	<path class="st2" d="M24.62,42.78L2.5,34.57C2.5,34.57,15.77,42.3,24.62,42.78z"/>
	<path class="st2" d="M27.17,35.98L14.75,24.95C14.75,24.95,23.53,30.41,27.17,35.98z"/>
	<path class="st2" d="M27.17,61.82c1.24-0.28-15.29,6.64-15.29,6.64S17.19,64.03,27.17,61.82z"/>
</g>
</svg>
