<?xml version="1.0" encoding="utf-8"?>
<!-- Generator: Adobe Illustrator 26.0.0, SVG Export Plug-In . SVG Version: 6.00 Build 0)  -->
<svg version="1.1" id="Layer_1" xmlns="http://www.w3.org/2000/svg" xmlns:xlink="http://www.w3.org/1999/xlink" x="0px" y="0px"
	 viewBox="0 0 100 100" style="enable-background:new 0 0 100 100;" xml:space="preserve">
<style type="text/css">
	.st0{fill:#E6E7E8;}
	.st1{fill:#D29999;}
	.st2{fill:#97D2AF;}
	.st3{fill:#D7D796;}
	.st4{fill:#D697C3;}
	.st5{fill:#95D6D7;}
	.st6{fill:#414042;}
	.st7{font-family:'ArialRoundedMTBold';}
	.st8{font-size:24px;}
</style>
<path class="st0" d="M90,100H10c-5.52,0-10-4.48-10-10V10C0,4.48,4.48,0,10,0h80c5.52,0,10,4.48,10,10v80
	C100,95.52,95.52,100,90,100z"/>
<path class="st1" d="M57.5,62.5h-15c-2.76,0-5-2.24-5-5v-15c0-2.76,2.24-5,5-5h15c2.76,0,5,2.24,5,5v15
	C62.5,60.26,60.26,62.5,57.5,62.5z"/>
<path class="st2" d="M87.5,62.5h-15c-2.76,0-5-2.24-5-5v-15c0-2.76,2.24-5,5-5h15c2.76,0,5,2.24,5,5v15
	C92.5,60.26,90.26,62.5,87.5,62.5z"/>
<path class="st3" d="M57.5,92.5h-15c-2.76,0-5-2.24-5-5v-15c0-2.76,2.24-5,5-5h15c2.76,0,5,2.24,5,5v15
	C62.5,90.26,60.26,92.5,57.5,92.5z"/>
<path class="st3" d="M87.5,32.5h-15c-2.76,0-5-2.24-5-5v-15c0-2.76,2.24-5,5-5h15c2.76,0,5,2.24,5,5v15
	C92.5,30.26,90.26,32.5,87.5,32.5z"/>
<path class="st4" d="M27.5,32.5h-15c-2.76,0-5-2.24-5-5v-15c0-2.76,2.24-5,5-5h15c2.76,0,5,2.24,5,5v15
	C32.5,30.26,30.26,32.5,27.5,32.5z"/>
<path class="st2" d="M27.5,92.5h-15c-2.76,0-5-2.24-5-5v-15c0-2.76,2.24-5,5-5h15c2.76,0,5,2.24,5,5v15
	C32.5,90.26,30.26,92.5,27.5,92.5z"/>
<path class="st4" d="M87.5,92.5h-15c-2.76,0-5-2.24-5-5v-15c0-2.76,2.24-5,5-5h15c2.76,0,5,2.24,5,5v15
	C92.5,90.26,90.26,92.5,87.5,92.5z"/>
<path class="st5" d="M27.5,62.5h-15c-2.76,0-5-2.24-5-5v-15c0-2.76,2.24-5,5-5h15c2.76,0,5,2.24,5,5v15
	C32.5,60.26,30.26,62.5,27.5,62.5z"/>
<path class="st5" d="M57.5,32.5h-15c-2.76,0-5-2.24-5-5v-15c0-2.76,2.24-5,5-5h15c2.76,0,5,2.24,5,5v15
	C62.5,30.26,60.26,32.5,57.5,32.5z"/>
<text transform="matrix(1 0 0 1 43.1209 58.8369)" class="st6 st7 st8">?</text>
</svg>
