<?xml version="1.0" encoding="utf-8"?>
<!-- Generator: Adobe Illustrator 26.0.0, SVG Export Plug-In . SVG Version: 6.00 Build 0)  -->
<svg version="1.1" id="Layer_1" xmlns="http://www.w3.org/2000/svg" xmlns:xlink="http://www.w3.org/1999/xlink" x="0px" y="0px"
	 viewBox="0 0 50 60" style="enable-background:new 0 0 50 60;" xml:space="preserve">
<g>
	<g>
		<g>
			<path d="M3.99,17.24C4.82,16.6,5.75,16,6.82,15.92c1.42-0.11,2.66,0.38,3.95,0.83c-1.1-2.21-1.74-4.98-1.35-7.46
				c-2.18,2.1-4.07,4.81-5.46,7.97C3.98,17.26,3.98,17.25,3.99,17.24z"/>
			<path d="M3.97,17.61c-0.08,0-0.16-0.02-0.22-0.07c-0.13-0.1-0.19-0.27-0.12-0.42c1.38-3.13,3.3-5.93,5.54-8.09
				C9.29,8.92,9.46,8.89,9.6,8.97c0.14,0.07,0.22,0.23,0.19,0.38c-0.34,2.16,0.14,4.83,1.28,7.17c0.05,0.06,0.08,0.14,0.08,0.23
				c0,0.2-0.16,0.37-0.36,0.37c0,0-0.01,0-0.01,0c-0.04,0-0.08-0.01-0.12-0.02l-0.32-0.11c-1.17-0.41-2.26-0.8-3.49-0.7
				c-1.01,0.08-1.9,0.67-2.63,1.25C4.15,17.58,4.06,17.61,3.97,17.61z M8.96,10.28c-1.58,1.68-2.97,3.69-4.09,5.91
				c0.58-0.33,1.22-0.59,1.92-0.64c1.18-0.09,2.26,0.22,3.29,0.57C9.26,14.19,8.87,12.14,8.96,10.28z"/>
		</g>
		<g>
			<path d="M20.13,9.29c1.07-2.47,3.5-4.92,6.18-4.17c-0.14-0.94-0.05-2.15,0.31-3.19c-2.85-0.38-5.76,0.36-8.45,1.96
				C19.41,4.98,19.92,7.49,20.13,9.29z"/>
			<path d="M20.13,9.66c-0.02,0-0.03,0-0.05,0c-0.16-0.02-0.29-0.16-0.31-0.32c-0.3-2.55-0.95-4.39-1.84-5.17
				c-0.09-0.08-0.13-0.19-0.12-0.31c0.01-0.12,0.08-0.22,0.18-0.28c2.81-1.68,5.85-2.39,8.69-2.01c0.11,0.01,0.21,0.08,0.26,0.17
				c0.06,0.09,0.07,0.21,0.03,0.31c-0.32,0.9-0.43,2.02-0.31,2.94c0.02,0.04,0.02,0.09,0.02,0.13c0,0.2-0.17,0.36-0.37,0.37
				c-0.05,0-0.07,0-0.1-0.01c-0.29-0.08-0.59-0.12-0.89-0.12c-2.14,0-3.98,2.05-4.86,4.09C20.41,9.57,20.27,9.66,20.13,9.66z
				 M18.76,3.97c0.84,1.01,1.31,2.63,1.57,4.13c1.1-1.86,2.92-3.48,5-3.48c0.19,0,0.38,0.01,0.57,0.04
				c-0.05-0.79,0.04-1.64,0.25-2.42C23.72,2.02,21.17,2.62,18.76,3.97z"/>
		</g>
		<g>
			<path d="M12.31,20.89c-1.45,0.25-2.9,0.65-4.25,1.25c-0.33,1.34-0.56,2.68-0.69,3.99C8.68,24.12,10.48,22.36,12.31,20.89z"/>
			<path d="M7.37,26.5c-0.04,0-0.08-0.01-0.12-0.02c-0.16-0.06-0.26-0.21-0.24-0.38c0.14-1.35,0.37-2.71,0.7-4.04
				c0.03-0.11,0.1-0.2,0.21-0.25c1.29-0.58,2.75-1.01,4.34-1.28c0.16-0.03,0.32,0.06,0.39,0.21c0.07,0.15,0.02,0.33-0.1,0.43
				c-2.1,1.69-3.74,3.42-4.86,5.15C7.61,26.44,7.49,26.5,7.37,26.5z M8.37,22.41c-0.18,0.77-0.34,1.55-0.46,2.33
				c0.84-1.08,1.86-2.15,3.05-3.2C10.04,21.77,9.17,22.06,8.37,22.41z"/>
		</g>
		<g>
			<path d="M26.12,13.46c-0.26-0.49-0.47-1.02-0.62-1.56c-0.74,0.36-1.47,0.73-2.21,1.06c0.1,0.88,0,1.76-0.12,2.64
				C24.04,14.78,25.07,14.08,26.12,13.46z"/>
			<path d="M23.16,15.97c-0.06,0-0.11-0.01-0.17-0.04c-0.14-0.07-0.21-0.22-0.19-0.38c0.12-0.82,0.22-1.69,0.12-2.55
				c-0.02-0.16,0.07-0.31,0.22-0.37c0.62-0.27,1.24-0.58,1.85-0.88l0.35-0.17c0.1-0.05,0.21-0.05,0.31-0.01
				c0.1,0.04,0.17,0.13,0.2,0.24c0.14,0.51,0.34,1.01,0.59,1.48c0.09,0.17,0.03,0.38-0.14,0.48c-1.23,0.73-2.15,1.4-2.89,2.1
				C23.34,15.94,23.25,15.97,23.16,15.97z M23.67,13.19c0.04,0.51,0.02,1.02-0.03,1.51c0.57-0.46,1.22-0.91,2-1.38
				c-0.14-0.29-0.26-0.59-0.36-0.9C24.75,12.68,24.22,12.95,23.67,13.19z"/>
		</g>
		<g>
			<path d="M39.85,18.41c-1.48,1.11-3.11,2.02-4.92,2.31c0.74,0.82,1.12,2.05,1.26,3.28c1.28-0.55,2.64-0.91,4.02-1.16
				C39.76,21.46,39.7,19.89,39.85,18.41z"/>
			<path d="M36.19,24.37c-0.06,0-0.13-0.02-0.18-0.05c-0.1-0.06-0.17-0.16-0.18-0.27c-0.11-0.94-0.41-2.23-1.17-3.08
				c-0.09-0.1-0.12-0.24-0.07-0.37c0.04-0.13,0.15-0.22,0.29-0.24c1.51-0.25,3.07-0.98,4.76-2.25c0.11-0.09,0.27-0.1,0.4-0.03
				c0.13,0.07,0.2,0.21,0.18,0.35c-0.16,1.61-0.04,3.09,0.35,4.28c0.03,0.1,0.02,0.21-0.03,0.3c-0.05,0.09-0.14,0.15-0.25,0.17
				c-1.52,0.28-2.81,0.65-3.94,1.14C36.29,24.36,36.24,24.37,36.19,24.37z M35.57,20.97c0.51,0.78,0.78,1.72,0.91,2.52
				c0.97-0.38,2.05-0.69,3.26-0.93c-0.28-1.01-0.38-2.15-0.32-3.4C38.09,20.08,36.82,20.67,35.57,20.97z"/>
		</g>
		<g>
			<path d="M25.96,33.43c-1.19,0.89-2.5,1.63-3.96,1.86c0.6,0.66,0.9,1.65,1.02,2.64c1.03-0.45,2.13-0.73,3.24-0.94
				C25.89,35.89,25.84,34.62,25.96,33.43z"/>
			<path d="M23.01,38.3c-0.06,0-0.13-0.02-0.18-0.05c-0.1-0.06-0.17-0.16-0.18-0.27c-0.09-0.74-0.32-1.77-0.93-2.44
				c-0.09-0.1-0.12-0.24-0.07-0.36c0.04-0.13,0.15-0.22,0.29-0.24c1.23-0.2,2.43-0.77,3.8-1.8c0.12-0.09,0.27-0.1,0.4-0.03
				c0.13,0.07,0.2,0.21,0.18,0.35c-0.13,1.29-0.03,2.47,0.28,3.42c0.03,0.1,0.02,0.21-0.03,0.3c-0.05,0.09-0.14,0.15-0.25,0.17
				c-1.22,0.22-2.25,0.52-3.16,0.91C23.11,38.29,23.06,38.3,23.01,38.3z M22.63,35.54c0.37,0.59,0.57,1.29,0.68,1.89
				c0.74-0.29,1.56-0.52,2.48-0.71c-0.2-0.76-0.28-1.62-0.25-2.54C24.54,34.85,23.57,35.3,22.63,35.54z"/>
		</g>
		<g>
			<path d="M13.04,25.42c-0.79,0.59-1.65,1.07-2.61,1.23c0.39,0.44,0.59,1.09,0.67,1.74c0.68-0.29,1.4-0.48,2.13-0.62
				C12.99,27.04,12.96,26.2,13.04,25.42z"/>
			<path d="M11.1,28.75c-0.06,0-0.13-0.02-0.18-0.05c-0.1-0.06-0.17-0.16-0.18-0.27c-0.08-0.68-0.28-1.21-0.58-1.54
				c-0.09-0.1-0.12-0.24-0.07-0.37c0.04-0.13,0.15-0.22,0.29-0.24c0.79-0.13,1.57-0.5,2.45-1.16c0.11-0.09,0.27-0.1,0.4-0.03
				c0.13,0.07,0.2,0.21,0.18,0.36c-0.08,0.83-0.02,1.59,0.18,2.2c0.03,0.1,0.02,0.21-0.03,0.3c-0.05,0.09-0.14,0.15-0.25,0.17
				c-0.8,0.15-1.47,0.34-2.06,0.59C11.2,28.74,11.15,28.75,11.1,28.75z M11.03,26.88c0.17,0.32,0.28,0.67,0.35,1
				c0.42-0.15,0.88-0.28,1.39-0.39c-0.1-0.41-0.14-0.87-0.14-1.35C12.09,26.49,11.56,26.73,11.03,26.88z"/>
		</g>
		<g>
			<path d="M30.72,13.48c1.06-0.57,2.18-0.79,3.41-0.33c1.14,0.43,2.02,1.4,2.76,2.39c-0.06-1.15,0.19-2.44,1.57-2.4
				c0.47,0.01,0.89,0.16,1.27,0.39c-1.15-4.21-3.47-7.62-6.68-9.47C33.68,7.15,32.23,10.74,30.72,13.48z"/>
			<path d="M36.89,15.91c-0.11,0-0.22-0.05-0.29-0.15c-0.63-0.84-1.49-1.85-2.59-2.26c-1.01-0.38-2-0.29-3.1,0.31
				c-0.14,0.08-0.32,0.05-0.43-0.06c-0.11-0.11-0.14-0.29-0.06-0.43c2.01-3.66,2.78-6.75,2.29-9.18c-0.03-0.14,0.03-0.28,0.14-0.37
				c0.12-0.08,0.27-0.09,0.4-0.02c3.2,1.85,5.62,5.26,6.83,9.62c0.03,0.05,0.04,0.11,0.04,0.17c0,0.2-0.16,0.37-0.36,0.37
				c0,0-0.01,0-0.01,0c-0.07,0-0.13-0.02-0.19-0.05c-0.36-0.22-0.72-0.33-1.1-0.34c0,0,0,0,0,0c-0.37,0-0.62,0.09-0.79,0.28
				c-0.29,0.3-0.43,0.88-0.4,1.66c0.01,0.03,0.01,0.06,0.01,0.1C37.26,15.74,37.1,15.91,36.89,15.91
				C36.89,15.91,36.89,15.91,36.89,15.91z M32.8,12.54c0.49,0,0.98,0.09,1.46,0.27c0.94,0.35,1.7,1.04,2.31,1.74
				c0.08-0.54,0.27-0.97,0.56-1.27c0.32-0.33,0.75-0.5,1.28-0.5l0.07,0c0.23,0.01,0.46,0.04,0.69,0.11
				c-1.12-3.55-3.09-6.38-5.63-8.1c0.22,2.24-0.45,4.91-2,7.96C31.96,12.61,32.38,12.54,32.8,12.54z"/>
		</g>
		<g>
			<path d="M42.6,26.13c0,0,0.92,9.91-5.47,14.94c0,0-2.95-6.2-7.2-4.3c0,0,3.92-2.65,1.32-6.18c0,0,6.07,2.7,8.49,0.21
				C42.14,28.31,42.6,26.13,42.6,26.13z"/>
			<path d="M37.13,41.43c-0.03,0-0.06,0-0.08-0.01c-0.11-0.02-0.2-0.1-0.25-0.2c-0.02-0.04-2.16-4.45-5.25-4.45
				c-0.49,0-0.98,0.11-1.47,0.33c-0.17,0.08-0.38,0.01-0.47-0.16c-0.09-0.17-0.04-0.37,0.11-0.48c0.02-0.01,1.71-1.18,2.01-2.91
				c0.16-0.91-0.1-1.84-0.78-2.75c-0.1-0.13-0.09-0.32,0.01-0.45c0.1-0.13,0.28-0.17,0.43-0.1c0.03,0.01,2.8,1.23,5.26,1.23l0,0
				c1.26,0,2.2-0.32,2.81-0.95c2.3-2.38,2.77-4.46,2.77-4.48c0.04-0.18,0.2-0.29,0.38-0.29c0.18,0.01,0.33,0.15,0.34,0.33
				c0.01,0.1,0.23,2.56-0.34,5.68c-0.76,4.15-2.58,7.46-5.26,9.57C37.29,41.41,37.21,41.43,37.13,41.43z M31.55,36.04
				c2.97,0,5.05,3.28,5.7,4.46c4.24-3.61,4.95-9.58,5.02-12.55c-0.44,0.85-1.15,1.94-2.27,3.1c-0.75,0.77-1.87,1.17-3.34,1.17l0,0
				c-1.69,0-3.47-0.52-4.55-0.9c0.36,0.78,0.48,1.57,0.34,2.37c-0.17,0.98-0.69,1.79-1.2,2.37C31.35,36.05,31.45,36.04,31.55,36.04z
				"/>
		</g>
		<g>
			<path d="M10.33,36.46c0.29-0.82,0.91-1.32,1.68-1.65c-1.73-0.12-3.57-0.6-4.38-1.97c-1.78-2.98-1.71-5.2-1.71-5.2
				S3,36.32,7.21,42.64c0.16-1.53,1.38-3.11,2.42-4c0.43-0.36,0.88-0.63,1.35-0.83C10.43,37.53,10.1,37.12,10.33,36.46z"/>
			<path d="M7.21,43c-0.12,0-0.23-0.06-0.3-0.16c-4.26-6.39-1.46-14.95-1.34-15.31c0.06-0.17,0.23-0.27,0.41-0.24
				c0.18,0.03,0.31,0.19,0.3,0.37c0,0.02-0.03,2.16,1.66,5c0.78,1.31,2.66,1.7,4.1,1.8c0.17,0.01,0.31,0.14,0.34,0.3
				c0.03,0.17-0.06,0.33-0.22,0.4c-0.77,0.32-1.25,0.79-1.48,1.43c-0.1,0.29-0.12,0.61,0.46,0.89c0.13,0.06,0.21,0.2,0.2,0.34
				c0,0.14-0.09,0.27-0.22,0.33c-0.47,0.2-0.88,0.45-1.25,0.77c-1.04,0.89-2.15,2.4-2.29,3.76c-0.02,0.15-0.13,0.28-0.28,0.32
				C7.27,43,7.24,43,7.21,43z M5.82,29.49c-0.56,2.66-1.18,7.88,1.23,12.19c0.45-1.34,1.47-2.58,2.34-3.32
				c0.27-0.23,0.56-0.44,0.87-0.61c-0.48-0.49-0.4-1.06-0.28-1.4c0.18-0.51,0.48-0.94,0.91-1.29c-1.75-0.29-2.95-0.97-3.58-2.03
				C6.49,31.65,6.05,30.42,5.82,29.49z"/>
		</g>
		<g>
			<path d="M30.72,24.38l-5.05-0.86c0,0,1.63,1.45,0.44,4.16l2.63,2.44C28.75,30.12,28.35,26.24,30.72,24.38z"/>
			<path d="M28.75,30.48c-0.09,0-0.18-0.03-0.25-0.1l-2.63-2.44c-0.11-0.1-0.15-0.27-0.09-0.41c1.06-2.42-0.3-3.69-0.35-3.74
				c-0.12-0.11-0.15-0.29-0.08-0.43c0.07-0.14,0.23-0.23,0.39-0.2l5.05,0.86c0.14,0.02,0.26,0.13,0.29,0.27
				c0.03,0.14-0.02,0.29-0.13,0.38c-2.18,1.71-1.84,5.38-1.84,5.42c0.02,0.15-0.06,0.3-0.2,0.36
				C28.86,30.47,28.81,30.48,28.75,30.48z M26.55,27.58l1.81,1.68c0.02-1.16,0.27-3.21,1.58-4.65l-3.44-0.59
				C26.88,24.74,27.19,25.94,26.55,27.58z"/>
		</g>
		<g>
			<path d="M17.08,34.6c0,0-1.03,5.16-4.77,6.47c0,0,5.51-0.1,5.86,3.55C18.17,44.62,20.24,41.57,17.08,34.6z"/>
			<path d="M18.17,44.98c-0.03,0-0.06,0-0.09-0.01c-0.15-0.04-0.26-0.17-0.27-0.32c-0.3-3.13-4.93-3.22-5.46-3.22
				c-0.18,0-0.35-0.13-0.38-0.3c-0.03-0.18,0.05-0.35,0.22-0.41c3.5-1.23,4.52-6.15,4.53-6.2c0.03-0.15,0.16-0.27,0.32-0.29
				c0.16-0.02,0.31,0.07,0.37,0.21c3.22,7.07,1.15,10.24,1.06,10.37C18.4,44.92,18.29,44.98,18.17,44.98z M13.67,40.8
				c1.5,0.2,3.75,0.81,4.57,2.64c0.33-1.26,0.52-3.78-1.08-7.74C16.72,37.08,15.7,39.48,13.67,40.8z"/>
		</g>
		<polygon points="26.27,41.07 31.3,58.53 33.52,56.81 		"/>
		<polygon points="10.43,43.95 0.96,54.41 0,52.46 		"/>
		<polygon points="17.28,16.15 9.18,2.8 11.3,2.3 		"/>
		<polygon points="49.64,11.53 29.46,19.68 50,12.8 		"/>
		<g>
			<path d="M9.35,51.24c0,0,5.5,5.31,12.45,3.71c0,0-3.67-3.53-3.19-7.57c0,0-4.87,3.95-7.13-1.17c0,0,0.91,4.91-0.09,4.52
				C10.4,50.33,9.35,51.24,9.35,51.24z"/>
			<path d="M19.15,55.61c-5.73,0-9.89-3.94-10.06-4.11c-0.07-0.07-0.11-0.17-0.11-0.27c0-0.1,0.05-0.2,0.13-0.27
				c0.03-0.03,0.82-0.7,1.74-0.7c0.2,0,0.39,0.03,0.57,0.09c0.16-0.47,0.03-2.24-0.3-4.07c-0.03-0.18,0.07-0.36,0.25-0.41
				c0.18-0.05,0.37,0.03,0.44,0.2c0.71,1.59,1.74,2.4,3.09,2.4h0c1.76,0,3.46-1.36,3.48-1.37c0.12-0.09,0.28-0.11,0.41-0.04
				c0.13,0.07,0.2,0.21,0.19,0.36c-0.45,3.81,3.05,7.23,3.08,7.26c0.1,0.09,0.13,0.23,0.1,0.36c-0.04,0.13-0.14,0.23-0.27,0.26
				C20.99,55.51,20.07,55.61,19.15,55.61z M9.94,51.27c1.09,0.91,4.68,3.61,9.21,3.61c0.65,0,1.29-0.06,1.93-0.16
				c-0.92-1.04-2.89-3.61-2.88-6.61c-0.72,0.45-1.97,1.09-3.3,1.09h0c-0.83,0-1.88-0.26-2.79-1.29c0.15,1.22,0.2,2.55-0.16,2.99
				c-0.17,0.2-0.44,0.27-0.69,0.17C10.83,50.9,10.28,51.08,9.94,51.27z"/>
		</g>
	</g>
</g>
</svg>
